<svg width="70" height="70" viewBox="0 0 70 70" fill="none" xmlns="http://www.w3.org/2000/svg">
<path d="M35 69.2008C53.8882 69.2008 69.2001 53.8889 69.2001 35.0008C69.2001 16.1126 53.8882 0.800781 35 0.800781C16.1119 0.800781 0.800049 16.1126 0.800049 35.0008C0.800049 53.8889 16.1119 69.2008 35 69.2008Z" fill="url(#paint0_radial_10_48)"/>
<path opacity="0.4" d="M63.7657 35.195C64.5205 50.5916 52.7907 62.5824 37.5667 61.977C22.3427 61.3722 9.38918 48.4 8.63434 33.0034C7.87942 17.6068 19.609 5.61594 34.833 6.22116C50.057 6.82638 63.0103 19.7984 63.7657 35.195Z" fill="url(#paint1_radial_10_48)"/>
<path d="M61.3657 36.9958C62.1205 52.3924 50.3908 64.3832 35.1668 63.7778C19.9428 63.173 6.9893 50.2008 6.23444 34.8041C5.47952 19.4075 17.2091 7.41672 32.4331 8.02194C47.6571 8.62716 60.6103 21.5992 61.3657 36.9958Z" fill="url(#paint2_radial_10_48)"/>
<path opacity="0.5" d="M63.7657 35.195C64.5205 50.5916 52.7907 62.5824 37.5667 61.977C22.3427 61.3722 9.38918 48.4 8.63434 33.0034C7.87942 17.6068 19.609 5.61594 34.833 6.22116C50.057 6.82638 63.0103 19.7984 63.7657 35.195Z" fill="url(#paint3_radial_10_48)"/>
<path opacity="0.6" d="M35.9001 59.6C47.6637 59.6 57.2001 50.0637 57.2001 38.3C57.2001 26.5363 47.6637 17 35.9001 17C24.1364 17 14.6001 26.5363 14.6001 38.3C14.6001 50.0637 24.1364 59.6 35.9001 59.6Z" fill="url(#paint4_radial_10_48)"/>
<path fill-rule="evenodd" clip-rule="evenodd" d="M38.085 41.2727L45.3388 34.76L47.8946 37.5142L37.9119 46.477L36.8467 47.4333L35.6072 46.477L23.99 37.5142L26.0435 34.76L34.485 41.2727L32.6001 20.6016H36.2001L38.085 41.2727Z" fill="url(#paint5_radial_10_48)"/>
<path opacity="0.4" fill-rule="evenodd" clip-rule="evenodd" d="M60.6566 33.9618C60.7832 34.3893 61.391 34.3233 61.3694 33.878C60.6962 20.1369 49.1509 8.55975 35.5817 8.01957C33.4606 7.93515 31.4155 8.12541 29.4772 8.55909C29.0745 8.64915 29.1575 9.2082 29.5697 9.2246C44.0094 9.7979 56.6246 20.2971 60.6566 33.9618Z" fill="url(#paint6_radial_10_48)"/>
<defs>
<radialGradient id="paint0_radial_10_48" cx="0" cy="0" r="1" gradientUnits="userSpaceOnUse" gradientTransform="translate(35.0001 35.1837) rotate(-90) scale(34.3829 34.3829)">
<stop offset="0.782019" stop-color="#982DBE"/>
<stop offset="0.906819" stop-color="#B038DC" stop-opacity="0.2"/>
<stop offset="1" stop-color="#E4A1FA" stop-opacity="0"/>
</radialGradient>
<radialGradient id="paint1_radial_10_48" cx="0" cy="0" r="1" gradientUnits="userSpaceOnUse" gradientTransform="translate(51.9936 19.0992) rotate(135) scale(49.9836)">
<stop stop-color="#FFDCCC"/>
<stop offset="0.333333" stop-color="#FFBDC0"/>
<stop offset="0.666667" stop-color="#F89DC6"/>
<stop offset="1" stop-color="#E4A1FA"/>
</radialGradient>
<radialGradient id="paint2_radial_10_48" cx="0" cy="0" r="1" gradientUnits="userSpaceOnUse" gradientTransform="translate(51.7999 18.6937) rotate(135) scale(53.1037)">
<stop stop-color="#FFA984"/>
<stop offset="0.333333" stop-color="#FF787F"/>
<stop offset="0.666667" stop-color="#F45FA2"/>
<stop offset="1" stop-color="#C44AF1"/>
</radialGradient>
<radialGradient id="paint3_radial_10_48" cx="0" cy="0" r="1" gradientUnits="userSpaceOnUse" gradientTransform="translate(51.9936 19.0992) rotate(135) scale(49.9836)">
<stop stop-color="#FFDCCC"/>
<stop offset="0.333333" stop-color="#FFBDC0"/>
<stop offset="0.666667" stop-color="#F89DC6"/>
<stop offset="1" stop-color="#E4A1FA"/>
</radialGradient>
<radialGradient id="paint4_radial_10_48" cx="0" cy="0" r="1" gradientUnits="userSpaceOnUse" gradientTransform="translate(35.9001 38.3) scale(21.3)">
<stop stop-color="white"/>
<stop offset="1" stop-color="white" stop-opacity="0"/>
</radialGradient>
<radialGradient id="paint5_radial_10_48" cx="0" cy="0" r="1" gradientUnits="userSpaceOnUse" gradientTransform="translate(30.2001 31.1016) rotate(39.5226) scale(15.5567)">
<stop stop-color="#EF7744"/>
<stop offset="0.2406" stop-color="#E50914"/>
<stop offset="1" stop-color="#792A95"/>
</radialGradient>
<radialGradient id="paint6_radial_10_48" cx="0" cy="0" r="1" gradientUnits="userSpaceOnUse" gradientTransform="translate(49.7 20.3) rotate(-180) scale(30)">
<stop stop-color="white"/>
<stop offset="1" stop-color="white" stop-opacity="0"/>
</radialGradient>
</defs>
</svg>
