<svg width="54" height="54" viewBox="0 0 54 54" fill="none" xmlns="http://www.w3.org/2000/svg">
<path d="M1.80005 6.60078C1.80005 3.94988 3.94905 1.80078 6.59995 1.80078H31.8C34.451 1.80078 36.6 3.94978 36.6 6.60078V31.8007C36.6 34.4516 34.451 36.6007 31.8 36.6007H6.60005C3.94905 36.6007 1.80005 34.4517 1.80005 31.8007V6.60078Z" fill="url(#paint0_radial_10_70)"/>
<path d="M0.600098 5.4016C0.600098 2.7506 2.74912 0.601622 5.40012 0.601562H30.6001C33.2511 0.601562 35.4001 2.7506 35.4001 5.4016V30.6015C35.4001 33.2525 33.2511 35.4015 30.6001 35.4015H5.40012C2.74912 35.4016 0.600098 33.2525 0.600098 30.6015V5.4016Z" fill="url(#paint1_radial_10_70)"/>
<path d="M9.60015 12.9008C9.60015 14.0606 8.65995 15.0008 7.50015 15.0008C6.34035 15.0008 5.40015 14.0606 5.40015 12.9008C5.40015 11.741 6.34035 10.8008 7.50015 10.8008C8.65995 10.8008 9.60015 11.741 9.60015 12.9008Z" fill="url(#paint2_radial_10_70)"/>
<path d="M30.6001 12.9008C30.6001 14.0606 29.6599 15.0008 28.5001 15.0008C27.3403 15.0008 26.4001 14.0606 26.4001 12.9008C26.4001 11.741 27.3403 10.8008 28.5001 10.8008C29.6599 10.8008 30.6001 11.741 30.6001 12.9008Z" fill="url(#paint3_radial_10_70)"/>
<path d="M14.6714 20.4501C14.2438 20.1967 13.6918 20.3379 13.4384 20.7655C13.1849 21.1932 13.3262 21.7452 13.7538 21.9986C14.8255 22.6337 17.7691 23.7744 21.6376 23.7744C25.5061 23.7744 28.4498 22.6337 29.5214 21.9986C29.9491 21.7452 30.0903 21.1932 29.8369 20.7655C29.5835 20.3379 29.0314 20.1967 28.6038 20.4501C27.8192 20.9151 25.1941 21.9744 21.6376 21.9744C18.0811 21.9744 15.4561 20.9151 14.6714 20.4501Z" fill="url(#paint4_radial_10_70)"/>
<path opacity="0.35" d="M10.2002 35.4016H19.2002L23.4002 18.6016C21.2789 19.1801 19.4544 20.5387 18.2923 22.4053L10.2002 35.4016Z" fill="url(#paint5_radial_10_70)"/>
<path d="M18.6001 23.4016C18.6001 20.7506 20.7491 18.6016 23.4001 18.6016H48.6001C51.2509 18.6016 53.4001 20.7506 53.4001 23.4016V48.6015C53.4001 51.2524 51.2509 53.4016 48.6001 53.4016H23.4001C20.7491 53.4016 18.6001 51.2524 18.6001 48.6016V23.4016Z" fill="url(#paint6_radial_10_70)"/>
<path d="M27.6001 30.9008C27.6001 32.0606 26.6599 33.0008 25.5001 33.0008C24.3403 33.0008 23.4001 32.0606 23.4001 30.9008C23.4001 29.741 24.3403 28.8008 25.5001 28.8008C26.6599 28.8008 27.6001 29.741 27.6001 30.9008Z" fill="url(#paint7_radial_10_70)"/>
<path d="M48.6001 30.9008C48.6001 32.0606 47.6599 33.0008 46.5001 33.0008C45.3403 33.0008 44.4001 32.0606 44.4001 30.9008C44.4001 29.741 45.3403 28.8008 46.5001 28.8008C47.6599 28.8008 48.6001 29.741 48.6001 30.9008Z" fill="url(#paint8_radial_10_70)"/>
<path d="M32.8214 38.6025C32.3938 38.349 31.8417 38.4903 31.5883 38.9179C31.3349 39.3455 31.4761 39.8976 31.9038 40.1509C32.9754 40.786 35.9191 41.9267 39.7876 41.9267C43.6561 41.9267 46.5997 40.786 47.6714 40.1509C48.099 39.8976 48.2403 39.3455 47.9868 38.9179C47.7334 38.4903 47.1814 38.349 46.7538 38.6025C45.9691 39.0674 43.3441 40.1267 39.7876 40.1267C36.2311 40.1267 33.606 39.0674 32.8214 38.6025Z" fill="url(#paint9_radial_10_70)"/>
<defs>
<radialGradient id="paint0_radial_10_70" cx="0" cy="0" r="1" gradientUnits="userSpaceOnUse" gradientTransform="translate(30.0751 8.68818) rotate(135) scale(32.8097)">
<stop stop-color="#99421D"/>
<stop offset="0.333333" stop-color="#99161D"/>
<stop offset="0.666667" stop-color="#7D1845"/>
<stop offset="1" stop-color="#59216E"/>
</radialGradient>
<radialGradient id="paint1_radial_10_70" cx="0" cy="0" r="1" gradientUnits="userSpaceOnUse" gradientTransform="translate(53.4001 -0.298426) rotate(133.87) scale(75.3216)">
<stop stop-color="#FFDCCC"/>
<stop offset="0.333333" stop-color="#FFBDC0"/>
<stop offset="0.666667" stop-color="#F89DC6"/>
<stop offset="1" stop-color="#E4A1FA"/>
</radialGradient>
<radialGradient id="paint2_radial_10_70" cx="0" cy="0" r="1" gradientUnits="userSpaceOnUse" gradientTransform="translate(51.3002 2.10078) rotate(133.939) scale(68.7426 55.9547)">
<stop stop-color="#99421D"/>
<stop offset="0.333333" stop-color="#99161D"/>
<stop offset="0.666667" stop-color="#7D1845"/>
<stop offset="1" stop-color="#59216E"/>
</radialGradient>
<radialGradient id="paint3_radial_10_70" cx="0" cy="0" r="1" gradientUnits="userSpaceOnUse" gradientTransform="translate(51.3001 2.10079) rotate(133.939) scale(68.7426 55.9547)">
<stop stop-color="#99421D"/>
<stop offset="0.333333" stop-color="#99161D"/>
<stop offset="0.666667" stop-color="#7D1845"/>
<stop offset="1" stop-color="#59216E"/>
</radialGradient>
<radialGradient id="paint4_radial_10_70" cx="0" cy="0" r="1" gradientUnits="userSpaceOnUse" gradientTransform="translate(51.3001 2.09941) rotate(133.939) scale(68.7426 55.9548)">
<stop stop-color="#99421D"/>
<stop offset="0.333333" stop-color="#99161D"/>
<stop offset="0.666667" stop-color="#7D1845"/>
<stop offset="1" stop-color="#59216E"/>
</radialGradient>
<radialGradient id="paint5_radial_10_70" cx="0" cy="0" r="1" gradientUnits="userSpaceOnUse" gradientTransform="translate(30.6002 18.9016) rotate(135) scale(23.3345)">
<stop stop-color="#FFA984"/>
<stop offset="0.333333" stop-color="#FF787F"/>
<stop offset="0.666667" stop-color="#F45FA2"/>
<stop offset="1" stop-color="#C44AF1"/>
</radialGradient>
<radialGradient id="paint6_radial_10_70" cx="0" cy="0" r="1" gradientUnits="userSpaceOnUse" gradientTransform="translate(52.8001 20.7016) rotate(135) scale(43.2749)">
<stop stop-color="#EF7744"/>
<stop offset="0.333333" stop-color="#E50914"/>
<stop offset="0.666667" stop-color="#A70D53"/>
<stop offset="1" stop-color="#792A95"/>
</radialGradient>
<radialGradient id="paint7_radial_10_70" cx="0" cy="0" r="1" gradientUnits="userSpaceOnUse" gradientTransform="translate(53.1001 2.10078) rotate(137.146) scale(73.6614 60.3576)">
<stop stop-color="#FFDCCC"/>
<stop offset="0.333333" stop-color="#FDF6F6"/>
<stop offset="0.666667" stop-color="#FADCE9"/>
<stop offset="1" stop-color="#E4A1FA"/>
</radialGradient>
<radialGradient id="paint8_radial_10_70" cx="0" cy="0" r="1" gradientUnits="userSpaceOnUse" gradientTransform="translate(53.1001 2.10078) rotate(137.146) scale(73.6614 60.3576)">
<stop stop-color="#FFDCCC"/>
<stop offset="0.333333" stop-color="#FDF6F6"/>
<stop offset="0.666667" stop-color="#FADCE9"/>
<stop offset="1" stop-color="#E4A1FA"/>
</radialGradient>
<radialGradient id="paint9_radial_10_70" cx="0" cy="0" r="1" gradientUnits="userSpaceOnUse" gradientTransform="translate(53.1001 2.1017) rotate(137.146) scale(73.6614 60.3576)">
<stop stop-color="#FFDCCC"/>
<stop offset="0.333333" stop-color="#FDF6F6"/>
<stop offset="0.666667" stop-color="#FADCE9"/>
<stop offset="1" stop-color="#E4A1FA"/>
</radialGradient>
</defs>
</svg>
