<svg width="54" height="54" viewBox="0 0 54 54" fill="none" xmlns="http://www.w3.org/2000/svg">
<path d="M15.0492 27.6016L24.6 37.3898L8.80292 47.8633C8.80292 47.8633 6.88912 48.6983 4.62502 46.2638C2.36102 43.8293 3.12352 42.238 3.12352 42.238L15.0492 27.6016Z" fill="url(#paint0_radial_10_58)"/>
<path d="M16.0345 25.1992L27.0001 37.151L16.0617 44.8043C16.0617 44.8043 12.829 46.0984 9.09882 42.0172C5.36872 37.9358 6.91992 35.5105 6.91992 35.5105L16.0345 25.1992Z" fill="url(#paint1_radial_10_58)"/>
<path d="M30 4.01953L50.1 24.6788L23.5325 41.4142C23.5325 41.4142 19.7459 41.2552 15.3978 36.4897C11.0498 31.7243 12.4096 26.8101 12.4096 26.8101L30 4.01953Z" fill="url(#paint2_radial_10_58)"/>
<path d="M48.6711 6.3516C54.1046 12.2807 54.986 20.2883 50.6388 24.2371C46.2918 28.186 38.363 26.5806 32.9294 20.6515C27.4956 14.7224 26.6147 6.7148 30.9617 2.766C35.3086 -1.18284 43.2374 0.42252 48.6711 6.3516Z" fill="url(#paint3_radial_10_58)"/>
<path d="M49.3788 22.255C45.8122 25.5032 39.2144 24.0817 34.6422 19.0798C30.0701 14.078 29.2548 7.38999 32.8214 4.14189C36.388 0.893633 42.9858 2.31519 47.558 7.31709C52.1299 12.3189 52.9453 19.0069 49.3788 22.255Z" fill="url(#paint4_radial_10_58)"/>
<path opacity="0.85" d="M50.6784 19.823C51.5761 15.1785 50.6545 11.5934 47.1604 7.61988C43.6663 3.64638 38.3509 1.86568 34.7797 3.75978C30.3711 6.09798 39.3735 4.59608 44.4578 10.5815C48.826 15.724 49.8517 24.1009 50.6784 19.823Z" fill="url(#paint5_radial_10_58)"/>
<path opacity="0.4" d="M41.3979 16.2452C41.4549 17.7239 40.2932 18.7677 38.8032 18.5766C37.3131 18.3856 36.059 17.032 36.002 15.5532C35.945 14.0745 37.1067 13.0307 38.5968 13.2218C40.0868 13.4128 41.341 14.7664 41.3979 16.2452Z" fill="url(#paint6_radial_10_58)"/>
<path opacity="0.6" d="M27.9219 12.0039L17.426 25.3627C17.3299 27.4604 19.2905 30.5534 21.0336 31.8344L32.2347 20.9105C30.6002 19.2005 27.9593 15.1025 27.9219 12.0039Z" fill="url(#paint7_radial_10_58)"/>
<path fill-rule="evenodd" clip-rule="evenodd" d="M11.0577 0.601562L12.4791 2.7187L15.0001 2.0654L13.3576 4.0272L14.779 6.1444L12.3425 5.2397L10.7001 7.2016L10.8366 4.6806L8.40012 3.7759L10.921 3.1225L11.0577 0.601562ZM49.7761 43.8016L49.9624 47.4685L53.4001 48.4188L50.0775 49.7347L50.2638 53.4016L48.024 50.548L44.7015 51.8638L46.6398 48.7843L44.4001 45.9307L47.8378 46.8811L49.7761 43.8016ZM6.20612 15.2101L6.87692 12.0016L4.47942 14.1964L1.68542 12.5563L2.99762 15.553L0.600098 17.7478L3.80862 17.405L5.12082 20.4016L5.79162 17.1931L9.00012 16.8502L6.20612 15.2101Z" fill="url(#paint8_linear_10_58)"/>
<defs>
<radialGradient id="paint0_radial_10_58" cx="0" cy="0" r="1" gradientUnits="userSpaceOnUse" gradientTransform="translate(27.6875 23.7016) rotate(135) scale(34.9134)">
<stop stop-color="#99421D"/>
<stop offset="0.333333" stop-color="#99161D"/>
<stop offset="0.666667" stop-color="#7D1845"/>
<stop offset="1" stop-color="#59216E"/>
</radialGradient>
<radialGradient id="paint1_radial_10_58" cx="0" cy="0" r="1" gradientUnits="userSpaceOnUse" gradientTransform="translate(33.5938 18.2992) rotate(135) scale(44.5477 44.5279)">
<stop stop-color="#EF7744"/>
<stop offset="0.333333" stop-color="#E50914"/>
<stop offset="0.666667" stop-color="#A70D53"/>
<stop offset="1" stop-color="#792A95"/>
</radialGradient>
<radialGradient id="paint2_radial_10_58" cx="0" cy="0" r="1" gradientUnits="userSpaceOnUse" gradientTransform="translate(33.3 20.106) rotate(135) scale(31.8127)">
<stop stop-color="#FB540D"/>
<stop offset="0.333333" stop-color="#E50914"/>
<stop offset="0.666667" stop-color="#A70D53"/>
<stop offset="1" stop-color="#792A95"/>
</radialGradient>
<radialGradient id="paint3_radial_10_58" cx="0" cy="0" r="1" gradientUnits="userSpaceOnUse" gradientTransform="translate(48.6752 5.7078) rotate(134.326) scale(24.0433 24.0367)">
<stop stop-color="#FFDCCC"/>
<stop offset="0.333333" stop-color="#FFBDC0"/>
<stop offset="0.666667" stop-color="#F89DC6"/>
<stop offset="1" stop-color="#E4A1FA"/>
</radialGradient>
<radialGradient id="paint4_radial_10_58" cx="0" cy="0" r="1" gradientUnits="userSpaceOnUse" gradientTransform="translate(43.1306 12.273) rotate(141.875) scale(9.87138 12.8159)">
<stop offset="0.307292" stop-color="#F89DC6"/>
<stop offset="0.645392" stop-color="#E75094"/>
<stop offset="1" stop-color="#59216E"/>
</radialGradient>
<radialGradient id="paint5_radial_10_58" cx="0" cy="0" r="1" gradientUnits="userSpaceOnUse" gradientTransform="translate(46.8001 6.59998) rotate(135) scale(13.1522)">
<stop stop-color="white"/>
<stop offset="1" stop-color="white" stop-opacity="0"/>
</radialGradient>
<radialGradient id="paint6_radial_10_58" cx="0" cy="0" r="1" gradientUnits="userSpaceOnUse" gradientTransform="translate(40.2362 13.9648) rotate(131.079) scale(5.08644 6.006)">
<stop stop-color="white"/>
<stop offset="1" stop-color="white" stop-opacity="0"/>
</radialGradient>
<radialGradient id="paint7_radial_10_58" cx="0" cy="0" r="1" gradientUnits="userSpaceOnUse" gradientTransform="translate(27.876 20.1353) rotate(137.622) scale(13.5764)">
<stop stop-color="#FFA984"/>
<stop offset="1" stop-color="#F7636B" stop-opacity="0"/>
</radialGradient>
<linearGradient id="paint8_linear_10_58" x1="35.6501" y1="18.9016" x2="15.2501" y2="39.3016" gradientUnits="userSpaceOnUse">
<stop stop-color="#EF7744"/>
<stop offset="0.333333" stop-color="#E50914"/>
<stop offset="0.666667" stop-color="#A70D53"/>
<stop offset="1" stop-color="#792A95"/>
</linearGradient>
</defs>
</svg>
