<svg width="58" height="51" viewBox="0 0 58 51" fill="none" xmlns="http://www.w3.org/2000/svg">
<path fill-rule="evenodd" clip-rule="evenodd" d="M30.1999 41.3992C30.1999 40.7365 29.6627 40.1992 28.9999 40.1992H27.7999C27.1372 40.1992 26.5999 40.7365 26.5999 41.3992V44.2636C26.5999 44.9129 26.0833 45.4433 25.4346 45.4739C23.3012 45.5744 21.1718 45.7834 19.0545 46.1011L12.4439 47.0926C11.2691 47.2688 10.3999 48.2782 10.3999 49.4662V50.0992C10.3999 50.4304 10.6685 50.6992 10.9999 50.6992H45.7999C46.1313 50.6992 46.3999 50.4304 46.3999 50.0992V49.4662C46.3999 48.2782 45.5308 47.2688 44.356 47.0926L37.7453 46.1011C35.6281 45.7834 33.4986 45.5744 31.3652 45.4739C30.7166 45.4433 30.1999 44.9129 30.1999 44.2636V41.3992Z" fill="url(#paint0_radial_10_26)"/>
<path d="M11.6001 48.7388C11.6001 48.2306 11.9588 47.796 12.4603 47.711C15.0197 47.2775 22.7586 46.0508 28.4001 46.0508C34.0416 46.0508 41.7805 47.2775 44.3399 47.711C44.8413 47.796 45.2001 48.2306 45.2001 48.7388C45.2001 48.902 45.0576 49.0268 44.8968 49.0004C43.122 48.707 33.9705 47.2409 28.4001 47.2409C22.8296 47.2409 13.6781 48.707 11.9034 49.0004C11.7426 49.0268 11.6001 48.902 11.6001 48.7388Z" fill="url(#paint1_radial_10_26)"/>
<path d="M56 0H1.99995C1.00584 0 0.199951 0.8059 0.199951 1.8V39.6C0.199951 40.5941 1.00584 41.4 1.99995 41.4H56C56.9941 41.4 57.8 40.5941 57.8 39.6V1.8C57.8 0.8059 56.9941 0 56 0Z" fill="url(#paint2_linear_10_26)"/>
<path d="M56 0H1.99995C1.00584 0 0.199951 0.8059 0.199951 1.8V39.6C0.199951 40.5941 1.00584 41.4 1.99995 41.4H56C56.9941 41.4 57.8 40.5941 57.8 39.6V1.8C57.8 0.8059 56.9941 0 56 0Z" fill="url(#paint3_radial_10_26)"/>
<path fill-rule="evenodd" clip-rule="evenodd" d="M1.99995 0.6H56C56.663 0.6 57.2 1.1372 57.2 1.8V38.4H0.799951V1.8C0.799951 1.1372 1.33719 0.6 1.99995 0.6ZM0.199951 38.4V1.8C0.199951 0.8059 1.00581 0 1.99995 0H56C56.9942 0 57.8 0.8059 57.8 1.8V38.4V39.6C57.8 40.5941 56.9942 41.4 56 41.4H1.99995C1.00581 41.4 0.199951 40.5941 0.199951 39.6V38.4Z" fill="url(#paint4_radial_10_26)"/>
<path d="M28.4001 40.8C29.3942 40.8 30.2001 40.3971 30.2001 39.9C30.2001 39.4029 29.3942 39 28.4001 39C27.406 39 26.6001 39.4029 26.6001 39.9C26.6001 40.3971 27.406 40.8 28.4001 40.8Z" fill="url(#paint5_radial_10_26)"/>
<defs>
<radialGradient id="paint0_radial_10_26" cx="0" cy="0" r="1" gradientUnits="userSpaceOnUse" gradientTransform="translate(43.3268 37.3723) rotate(118.526) scale(55.1579 46.2871)">
<stop stop-color="#802600"/>
<stop offset="0.333333" stop-color="#6F181D"/>
<stop offset="0.666667" stop-color="#5B1333"/>
<stop offset="1" stop-color="#391945"/>
</radialGradient>
<radialGradient id="paint1_radial_10_26" cx="0" cy="0" r="1" gradientUnits="userSpaceOnUse" gradientTransform="translate(41.1078 41.6128) rotate(158.116) scale(32.7275 42.219)">
<stop stop-color="#99421D"/>
<stop offset="0.333333" stop-color="#99161D"/>
<stop offset="0.666667" stop-color="#7D1845"/>
<stop offset="1" stop-color="#59216E"/>
</radialGradient>
<linearGradient id="paint2_linear_10_26" x1="3.4727" y1="2.9572" x2="49.1755" y2="39.4814" gradientUnits="userSpaceOnUse">
<stop stop-color="#99161D"/>
<stop offset="0.245283" stop-color="#CA005B"/>
<stop offset="0.346698" stop-color="#FF479A"/>
<stop offset="0.46934" stop-color="#CC3CFF"/>
<stop offset="0.735849" stop-color="#BC1A22"/>
<stop offset="1" stop-color="#C94FF5"/>
</linearGradient>
<radialGradient id="paint3_radial_10_26" cx="0" cy="0" r="1" gradientUnits="userSpaceOnUse" gradientTransform="translate(31.6181 11.8286) rotate(90) scale(25.9571 25.8545)">
<stop stop-color="#1C0E20" stop-opacity="0"/>
<stop offset="1" stop-color="#1C0E20"/>
</radialGradient>
<radialGradient id="paint4_radial_10_26" cx="0" cy="0" r="1" gradientUnits="userSpaceOnUse" gradientTransform="translate(47 8.1938) rotate(144.293) scale(47.2897 44.8232)">
<stop stop-color="#EF7744"/>
<stop offset="0.333333" stop-color="#E50914"/>
<stop offset="0.666667" stop-color="#A70D53"/>
<stop offset="1" stop-color="#792A95"/>
</radialGradient>
<radialGradient id="paint5_radial_10_26" cx="0" cy="0" r="1" gradientUnits="userSpaceOnUse" gradientTransform="translate(29.5251 39.3562) rotate(135) scale(4.58735)">
<stop stop-color="#FFDCCC"/>
<stop offset="0.333333" stop-color="#FFBDC0"/>
<stop offset="0.666667" stop-color="#F89DC6"/>
<stop offset="1" stop-color="#E4A1FA"/>
</radialGradient>
</defs>
</svg>
